<svg xmlns="http://www.w3.org/2000/svg" xmlns:xlink="http://www.w3.org/1999/xlink" width="250" zoomAndPan="magnify" viewBox="0 0 187.5 60" height="80" preserveAspectRatio="xMidYMid meet" version="1.0"><defs><g/></defs><g fill="#000000" fill-opacity="1"><g transform="translate(9.625001, 29.444492)"><g><path d="M 12 0 C 12 -0.414062 11.851562 -0.648438 11.5625 -0.703125 C 11.46875 -0.722656 11.367188 -0.734375 11.265625 -0.734375 L 9.328125 -0.734375 L 9.328125 -16.171875 L 10.765625 -16.171875 C 12.328125 -16.160156 13.359375 -15.195312 13.859375 -13.28125 L 14.40625 -11.265625 L 15.1875 -11.265625 L 15.078125 -16.90625 L 1.015625 -16.90625 L 0.875 -11.265625 L 1.65625 -11.265625 L 2.203125 -13.28125 C 2.722656 -15.195312 3.765625 -16.160156 5.328125 -16.171875 L 6.625 -16.171875 L 6.625 -0.734375 L 3.953125 -0.734375 L 3.953125 0 Z M 12 0 "/></g></g></g><g fill="#000000" fill-opacity="1"><g transform="translate(25.684951, 29.444492)"><g><path d="M 8.234375 0 C 8.234375 -0.414062 8.082031 -0.648438 7.78125 -0.703125 C 7.6875 -0.722656 7.59375 -0.734375 7.5 -0.734375 L 5.96875 -0.734375 L 5.96875 -8.3125 L 14.34375 -8.3125 L 14.34375 -0.734375 L 12.09375 -0.734375 L 12.09375 0 L 19.3125 0 C 19.3125 -0.414062 19.160156 -0.648438 18.859375 -0.703125 C 18.765625 -0.722656 18.671875 -0.734375 18.578125 -0.734375 L 17.046875 -0.734375 L 17.046875 -16.171875 L 19.3125 -16.171875 L 19.3125 -16.90625 L 12.09375 -16.90625 L 12.09375 -16.171875 L 14.34375 -16.171875 L 14.34375 -9.125 L 5.96875 -9.125 L 5.96875 -16.171875 L 8.234375 -16.171875 L 8.234375 -16.90625 L 1.015625 -16.90625 L 1.015625 -16.171875 L 3.265625 -16.171875 L 3.265625 -0.734375 L 1.015625 -0.734375 L 1.015625 0 Z M 8.234375 0 "/></g></g></g><g fill="#000000" fill-opacity="1"><g transform="translate(45.99938, 29.444492)"><g><path d="M 14.375 -11.78125 L 14.234375 -16.90625 L 1.015625 -16.90625 L 1.015625 -16.171875 L 3.265625 -16.171875 L 3.265625 -0.734375 L 1.015625 -0.734375 L 1.015625 0 L 14.234375 0 L 14.375 -5.125 L 13.75 -5.125 L 13.296875 -3.6875 C 12.804688 -2.070312 12.054688 -1.125 11.046875 -0.84375 C 10.785156 -0.769531 10.515625 -0.734375 10.234375 -0.734375 L 5.96875 -0.734375 L 5.96875 -8.3125 L 11.71875 -8.3125 L 11.71875 -9.125 L 5.96875 -9.125 L 5.96875 -16.171875 L 10.234375 -16.171875 C 11.679688 -16.171875 12.695312 -15.222656 13.28125 -13.328125 C 13.289062 -13.296875 13.296875 -13.257812 13.296875 -13.21875 L 13.75 -11.78125 Z M 14.375 -11.78125 "/></g></g></g><g fill="#000000" fill-opacity="1"><g transform="translate(61.749402, 29.444492)"><g/></g></g><g fill="#000000" fill-opacity="1"><g transform="translate(67.243595, 29.444492)"><g><path d="M 15.421875 -1.265625 C 15.421875 -0.472656 15.550781 -0.0234375 15.8125 0.078125 C 15.925781 0.117188 16.09375 0.140625 16.3125 0.140625 L 16.3125 -5.234375 L 15.578125 -5.234375 C 14.640625 -2.097656 12.753906 -0.519531 9.921875 -0.5 C 7.304688 -0.5 5.625 -1.945312 4.875 -4.84375 C 4.59375 -5.914062 4.453125 -7.128906 4.453125 -8.484375 C 4.453125 -12.066406 5.429688 -14.460938 7.390625 -15.671875 C 8.171875 -16.160156 9.050781 -16.40625 10.03125 -16.40625 C 12.769531 -16.363281 14.59375 -14.820312 15.5 -11.78125 L 16.234375 -11.78125 L 16.15625 -17.046875 C 15.71875 -17.046875 15.453125 -16.90625 15.359375 -16.625 C 15.316406 -16.40625 15.296875 -16.066406 15.296875 -15.609375 C 14.234375 -16.441406 12.816406 -16.953125 11.046875 -17.140625 C 10.648438 -17.171875 10.253906 -17.1875 9.859375 -17.1875 C 6.859375 -17.1875 4.554688 -16.085938 2.953125 -13.890625 C 1.847656 -12.335938 1.296875 -10.546875 1.296875 -8.515625 C 1.296875 -6.046875 2.066406 -3.976562 3.609375 -2.3125 C 5.222656 -0.582031 7.335938 0.28125 9.953125 0.28125 C 11.867188 0.257812 13.691406 -0.253906 15.421875 -1.265625 Z M 15.421875 -1.265625 "/></g></g></g><g fill="#000000" fill-opacity="1"><g transform="translate(84.684138, 29.444492)"><g><path d="M 8.234375 0 C 8.234375 -0.414062 8.082031 -0.648438 7.78125 -0.703125 C 7.6875 -0.722656 7.59375 -0.734375 7.5 -0.734375 L 5.96875 -0.734375 L 5.96875 -8.3125 L 14.34375 -8.3125 L 14.34375 -0.734375 L 12.09375 -0.734375 L 12.09375 0 L 19.3125 0 C 19.3125 -0.414062 19.160156 -0.648438 18.859375 -0.703125 C 18.765625 -0.722656 18.671875 -0.734375 18.578125 -0.734375 L 17.046875 -0.734375 L 17.046875 -16.171875 L 19.3125 -16.171875 L 19.3125 -16.90625 L 12.09375 -16.90625 L 12.09375 -16.171875 L 14.34375 -16.171875 L 14.34375 -9.125 L 5.96875 -9.125 L 5.96875 -16.171875 L 8.234375 -16.171875 L 8.234375 -16.90625 L 1.015625 -16.90625 L 1.015625 -16.171875 L 3.265625 -16.171875 L 3.265625 -0.734375 L 1.015625 -0.734375 L 1.015625 0 Z M 8.234375 0 "/></g></g></g><g fill="#000000" fill-opacity="1"><g transform="translate(104.998567, 29.444492)"><g><path d="M 0.28125 -16.171875 L 2.53125 -16.171875 L 2.53125 -6.3125 C 2.570312 -1.9375 4.800781 0.257812 9.21875 0.28125 C 12.46875 0.28125 14.445312 -1.023438 15.15625 -3.640625 C 15.382812 -4.484375 15.5 -5.46875 15.5 -6.59375 L 15.5 -16.171875 L 17.75 -16.171875 L 17.75 -16.90625 L 12.265625 -16.90625 L 12.265625 -16.171875 L 14.515625 -16.171875 L 14.515625 -6.421875 C 14.515625 -2.679688 13.085938 -0.707031 10.234375 -0.5 C 10.078125 -0.5 9.9375 -0.5 9.8125 -0.5 C 7.550781 -0.5 6.140625 -1.515625 5.578125 -3.546875 C 5.347656 -4.378906 5.234375 -5.359375 5.234375 -6.484375 L 5.234375 -16.171875 L 7.46875 -16.171875 L 7.46875 -16.90625 L 0.28125 -16.90625 Z M 0.28125 -16.171875 "/></g></g></g><g fill="#000000" fill-opacity="1"><g transform="translate(122.889915, 29.444492)"><g><path d="M 8.234375 0 L 8.234375 -0.734375 L 5.96875 -0.734375 L 5.96875 -7.75 L 8.40625 -7.75 L 12.84375 0 L 17.25 0 C 17.25 -0.425781 17.125 -0.660156 16.875 -0.703125 C 16.78125 -0.722656 16.679688 -0.734375 16.578125 -0.734375 L 15.640625 -0.734375 L 11.125 -8 C 12.9375 -8.46875 14.160156 -9.414062 14.796875 -10.84375 C 15.023438 -11.394531 15.140625 -11.953125 15.140625 -12.515625 C 15.140625 -13.921875 14.523438 -15.046875 13.296875 -15.890625 C 12.285156 -16.566406 11.046875 -16.90625 9.578125 -16.90625 L 1.015625 -16.90625 L 1.015625 -16.171875 L 3.265625 -16.171875 L 3.265625 -0.734375 L 1.015625 -0.734375 L 1.015625 0 Z M 8.5625 -16.171875 C 10.144531 -16.171875 11.238281 -15.503906 11.84375 -14.171875 C 12.0625 -13.628906 12.171875 -13.054688 12.171875 -12.453125 C 12.171875 -11.066406 11.703125 -10.003906 10.765625 -9.265625 C 10.179688 -8.796875 9.488281 -8.5625 8.6875 -8.5625 L 5.96875 -8.5625 L 5.96875 -16.171875 Z M 8.5625 -16.171875 "/></g></g></g><g fill="#000000" fill-opacity="1"><g transform="translate(140.13323, 29.444492)"><g><path d="M 15.421875 -1.265625 C 15.421875 -0.472656 15.550781 -0.0234375 15.8125 0.078125 C 15.925781 0.117188 16.09375 0.140625 16.3125 0.140625 L 16.3125 -5.234375 L 15.578125 -5.234375 C 14.640625 -2.097656 12.753906 -0.519531 9.921875 -0.5 C 7.304688 -0.5 5.625 -1.945312 4.875 -4.84375 C 4.59375 -5.914062 4.453125 -7.128906 4.453125 -8.484375 C 4.453125 -12.066406 5.429688 -14.460938 7.390625 -15.671875 C 8.171875 -16.160156 9.050781 -16.40625 10.03125 -16.40625 C 12.769531 -16.363281 14.59375 -14.820312 15.5 -11.78125 L 16.234375 -11.78125 L 16.15625 -17.046875 C 15.71875 -17.046875 15.453125 -16.90625 15.359375 -16.625 C 15.316406 -16.40625 15.296875 -16.066406 15.296875 -15.609375 C 14.234375 -16.441406 12.816406 -16.953125 11.046875 -17.140625 C 10.648438 -17.171875 10.253906 -17.1875 9.859375 -17.1875 C 6.859375 -17.1875 4.554688 -16.085938 2.953125 -13.890625 C 1.847656 -12.335938 1.296875 -10.546875 1.296875 -8.515625 C 1.296875 -6.046875 2.066406 -3.976562 3.609375 -2.3125 C 5.222656 -0.582031 7.335938 0.28125 9.953125 0.28125 C 11.867188 0.257812 13.691406 -0.253906 15.421875 -1.265625 Z M 15.421875 -1.265625 "/></g></g></g><g fill="#000000" fill-opacity="1"><g transform="translate(157.573773, 29.444492)"><g><path d="M 8.234375 0 C 8.234375 -0.414062 8.082031 -0.648438 7.78125 -0.703125 C 7.6875 -0.722656 7.59375 -0.734375 7.5 -0.734375 L 5.96875 -0.734375 L 5.96875 -8.3125 L 14.34375 -8.3125 L 14.34375 -0.734375 L 12.09375 -0.734375 L 12.09375 0 L 19.3125 0 C 19.3125 -0.414062 19.160156 -0.648438 18.859375 -0.703125 C 18.765625 -0.722656 18.671875 -0.734375 18.578125 -0.734375 L 17.046875 -0.734375 L 17.046875 -16.171875 L 19.3125 -16.171875 L 19.3125 -16.90625 L 12.09375 -16.90625 L 12.09375 -16.171875 L 14.34375 -16.171875 L 14.34375 -9.125 L 5.96875 -9.125 L 5.96875 -16.171875 L 8.234375 -16.171875 L 8.234375 -16.90625 L 1.015625 -16.90625 L 1.015625 -16.171875 L 3.265625 -16.171875 L 3.265625 -0.734375 L 1.015625 -0.734375 L 1.015625 0 Z M 8.234375 0 "/></g></g></g><g fill="#000000" fill-opacity="1"><g transform="translate(21.242969, 52.396424)"><g><path d="M 6.4375 -13.546875 L 6.4375 -13.875 L 0.890625 -13.875 L 0.890625 -13.546875 L 2.671875 -13.546875 L 2.671875 -0.328125 L 0.890625 -0.328125 L 0.890625 0 L 6.4375 0 L 6.4375 -0.328125 L 4.671875 -0.328125 L 4.671875 -13.546875 Z M 6.4375 -13.546875 "/></g></g></g><g fill="#000000" fill-opacity="1"><g transform="translate(28.577326, 52.396424)"><g><path d="M 0.5625 -0.328125 L 0.5625 0 L 4.4375 0 L 4.4375 -0.328125 L 2.671875 -0.328125 L 2.671875 -12.953125 L 10.65625 0.171875 L 11.359375 0.171875 L 11.359375 -13.546875 L 13.140625 -13.546875 L 13.140625 -13.875 L 9.25 -13.875 L 9.25 -13.546875 L 11.03125 -13.546875 L 11.03125 -3.40625 L 4.625 -13.875 L 0.5625 -13.875 L 0.5625 -13.546875 L 2.328125 -13.546875 L 2.328125 -0.328125 Z M 0.5625 -0.328125 "/></g></g></g><g fill="#000000" fill-opacity="1"><g transform="translate(42.151048, 52.396424)"><g/></g></g><g fill="#000000" fill-opacity="1"><g transform="translate(47.70863, 52.396424)"><g><path d="M 0.5625 -0.328125 L 0.5625 0 L 4.4375 0 L 4.4375 -0.328125 L 2.671875 -0.328125 L 2.671875 -12.953125 L 10.65625 0.171875 L 11.359375 0.171875 L 11.359375 -13.546875 L 13.140625 -13.546875 L 13.140625 -13.875 L 9.25 -13.875 L 9.25 -13.546875 L 11.03125 -13.546875 L 11.03125 -3.40625 L 4.625 -13.875 L 0.5625 -13.875 L 0.5625 -13.546875 L 2.328125 -13.546875 L 2.328125 -0.328125 Z M 0.5625 -0.328125 "/></g></g></g><g fill="#000000" fill-opacity="1"><g transform="translate(61.282352, 52.396424)"><g><path d="M 4.46875 -7.140625 L 6.09375 -7.140625 C 6.394531 -7.140625 6.632812 -7.09375 6.8125 -7 C 6.988281 -6.914062 7.128906 -6.789062 7.234375 -6.625 C 7.335938 -6.457031 7.414062 -6.257812 7.46875 -6.03125 C 7.53125 -5.800781 7.585938 -5.539062 7.640625 -5.25 C 7.679688 -5.050781 7.738281 -4.953125 7.8125 -4.953125 C 7.894531 -4.953125 7.9375 -5.039062 7.9375 -5.21875 L 7.9375 -9.421875 C 7.9375 -9.585938 7.894531 -9.671875 7.8125 -9.671875 C 7.738281 -9.671875 7.679688 -9.570312 7.640625 -9.375 C 7.585938 -9.082031 7.53125 -8.816406 7.46875 -8.578125 C 7.414062 -8.347656 7.335938 -8.148438 7.234375 -7.984375 C 7.128906 -7.828125 6.988281 -7.703125 6.8125 -7.609375 C 6.632812 -7.523438 6.394531 -7.484375 6.09375 -7.484375 L 4.46875 -7.484375 L 4.46875 -13.546875 L 7.59375 -13.546875 C 8.0625 -13.546875 8.453125 -13.429688 8.765625 -13.203125 C 9.085938 -12.984375 9.34375 -12.703125 9.53125 -12.359375 C 9.726562 -12.023438 9.867188 -11.664062 9.953125 -11.28125 C 10.046875 -10.90625 10.101562 -10.566406 10.125 -10.265625 C 10.125 -10.078125 10.175781 -9.984375 10.28125 -9.984375 C 10.382812 -9.984375 10.4375 -10.070312 10.4375 -10.25 L 10.4375 -13.390625 C 10.4375 -13.710938 10.265625 -13.875 9.921875 -13.875 L 0.6875 -13.875 L 0.6875 -13.546875 L 2.453125 -13.546875 L 2.453125 -0.328125 L 0.703125 -0.328125 L 0.703125 0 L 10.40625 0 C 10.8125 0 11.015625 -0.21875 11.015625 -0.65625 L 11.015625 -3.765625 C 11.015625 -4.085938 10.957031 -4.25 10.84375 -4.25 C 10.75 -4.25 10.675781 -4.109375 10.625 -3.828125 C 10.507812 -3.296875 10.390625 -2.816406 10.265625 -2.390625 C 10.140625 -1.960938 9.972656 -1.59375 9.765625 -1.28125 C 9.554688 -0.976562 9.296875 -0.742188 8.984375 -0.578125 C 8.671875 -0.410156 8.269531 -0.328125 7.78125 -0.328125 L 4.46875 -0.328125 Z M 4.46875 -7.140625 "/></g></g></g><g fill="#000000" fill-opacity="1"><g transform="translate(73.14128, 52.396424)"><g><path d="M 13.546875 -13.546875 L 13.546875 -13.875 L 0.5625 -13.875 L 0.5625 -13.546875 L 2.09375 -13.546875 L 6.90625 0.203125 L 7.171875 0.203125 L 9.421875 -6.21875 L 11.734375 0.203125 L 12 0.203125 L 16.828125 -13.546875 L 18.265625 -13.546875 L 18.265625 -13.875 L 14.6875 -13.875 L 14.6875 -13.546875 L 16.46875 -13.546875 L 12.640625 -2.703125 L 10.578125 -8.671875 L 12.296875 -13.546875 Z M 11.921875 -13.546875 L 10.390625 -9.21875 L 8.859375 -13.546875 Z M 7.828125 -2.75 L 4.046875 -13.546875 L 6.90625 -13.546875 L 9.234375 -6.78125 Z M 7.828125 -2.75 "/></g></g></g><g fill="#000000" fill-opacity="1"><g transform="translate(91.714764, 52.396424)"><g><path d="M 11.796875 -4.1875 C 11.722656 -4.1875 11.65625 -4.113281 11.59375 -3.96875 C 11.34375 -3.40625 11.070312 -2.878906 10.78125 -2.390625 C 10.488281 -1.898438 10.15625 -1.472656 9.78125 -1.109375 C 9.414062 -0.753906 9.003906 -0.476562 8.546875 -0.28125 C 8.097656 -0.0820312 7.597656 0.015625 7.046875 0.015625 C 5.796875 0.015625 4.863281 -0.46875 4.25 -1.4375 C 3.644531 -2.414062 3.34375 -3.851562 3.34375 -5.75 L 3.34375 -8.0625 C 3.34375 -9.875 3.648438 -11.269531 4.265625 -12.25 C 4.890625 -13.238281 5.847656 -13.734375 7.140625 -13.734375 C 7.679688 -13.734375 8.171875 -13.644531 8.609375 -13.46875 C 9.054688 -13.300781 9.457031 -13.066406 9.8125 -12.765625 C 10.164062 -12.460938 10.472656 -12.097656 10.734375 -11.671875 C 11.003906 -11.242188 11.21875 -10.78125 11.375 -10.28125 C 11.414062 -10.144531 11.46875 -10.078125 11.53125 -10.078125 C 11.59375 -10.078125 11.625 -10.160156 11.625 -10.328125 L 11.625 -13.6875 C 11.625 -13.8125 11.609375 -13.894531 11.578125 -13.9375 C 11.554688 -13.976562 11.519531 -14 11.46875 -14 C 11.394531 -14 11.304688 -13.945312 11.203125 -13.84375 L 10.390625 -13.015625 C 9.953125 -13.367188 9.457031 -13.640625 8.90625 -13.828125 C 8.351562 -14.015625 7.765625 -14.109375 7.140625 -14.109375 C 6.234375 -14.109375 5.390625 -13.898438 4.609375 -13.484375 C 3.835938 -13.078125 3.164062 -12.535156 2.59375 -11.859375 C 2.019531 -11.179688 1.570312 -10.410156 1.25 -9.546875 C 0.9375 -8.691406 0.78125 -7.820312 0.78125 -6.9375 C 0.78125 -5.914062 0.960938 -4.960938 1.328125 -4.078125 C 1.691406 -3.191406 2.171875 -2.414062 2.765625 -1.75 C 3.359375 -1.09375 4.023438 -0.570312 4.765625 -0.1875 C 5.515625 0.195312 6.273438 0.390625 7.046875 0.390625 C 7.691406 0.390625 8.3125 0.257812 8.90625 0 C 9.5 -0.25 10.03125 -0.632812 10.5 -1.15625 L 11.59375 0.046875 C 11.65625 0.109375 11.71875 0.140625 11.78125 0.140625 C 11.851562 0.140625 11.890625 0.09375 11.890625 0 L 11.890625 -3.984375 C 11.890625 -4.117188 11.859375 -4.1875 11.796875 -4.1875 Z M 11.796875 -4.1875 "/></g></g></g><g fill="#000000" fill-opacity="1"><g transform="translate(104.379447, 52.396424)"><g><path d="M 0.453125 -0.328125 L 0.453125 0 L 5.046875 0 L 5.046875 -0.328125 L 2.609375 -0.328125 L 3.90625 -4.3125 L 8.0625 -4.3125 L 9.40625 -0.328125 L 7.265625 -0.328125 L 7.265625 0 L 13.328125 0 L 13.328125 -0.328125 L 11.53125 -0.328125 L 7 -14.0625 L 6.75 -14.0625 L 2.234375 -0.328125 Z M 5.96875 -10.5625 L 7.953125 -4.640625 L 4.03125 -4.640625 Z M 5.96875 -10.5625 "/></g></g></g><g fill="#000000" fill-opacity="1"><g transform="translate(118.035818, 52.396424)"><g><path d="M 9.3125 -14.03125 L 8.71875 -13.265625 C 8.46875 -13.398438 8.234375 -13.519531 8.015625 -13.625 C 7.796875 -13.738281 7.570312 -13.828125 7.34375 -13.890625 C 7.113281 -13.960938 6.867188 -14.015625 6.609375 -14.046875 C 6.359375 -14.085938 6.070312 -14.109375 5.75 -14.109375 C 5.070312 -14.109375 4.46875 -14 3.9375 -13.78125 C 3.40625 -13.5625 2.953125 -13.265625 2.578125 -12.890625 C 2.210938 -12.515625 1.929688 -12.085938 1.734375 -11.609375 C 1.546875 -11.128906 1.453125 -10.617188 1.453125 -10.078125 C 1.453125 -9.347656 1.671875 -8.679688 2.109375 -8.078125 C 2.554688 -7.472656 3.257812 -7.007812 4.21875 -6.6875 C 4.664062 -6.539062 5.046875 -6.414062 5.359375 -6.3125 C 5.679688 -6.21875 5.976562 -6.125 6.25 -6.03125 C 6.53125 -5.945312 6.8125 -5.851562 7.09375 -5.75 C 7.375 -5.644531 7.703125 -5.503906 8.078125 -5.328125 C 8.546875 -5.109375 8.863281 -4.800781 9.03125 -4.40625 C 9.195312 -4.019531 9.28125 -3.625 9.28125 -3.21875 C 9.28125 -2.726562 9.179688 -2.28125 8.984375 -1.875 C 8.796875 -1.46875 8.539062 -1.125 8.21875 -0.84375 C 7.90625 -0.570312 7.539062 -0.359375 7.125 -0.203125 C 6.707031 -0.0546875 6.285156 0.015625 5.859375 0.015625 C 5.367188 0.015625 4.894531 -0.0664062 4.4375 -0.234375 C 3.988281 -0.410156 3.570312 -0.65625 3.1875 -0.96875 C 2.800781 -1.289062 2.460938 -1.679688 2.171875 -2.140625 C 1.890625 -2.609375 1.675781 -3.132812 1.53125 -3.71875 C 1.488281 -3.894531 1.410156 -3.984375 1.296875 -3.984375 C 1.203125 -3.984375 1.15625 -3.890625 1.15625 -3.703125 L 1.15625 0 C 1.15625 0.175781 1.21875 0.265625 1.34375 0.265625 C 1.425781 0.265625 1.515625 0.195312 1.609375 0.0625 L 2.359375 -1.015625 C 2.523438 -0.859375 2.726562 -0.695312 2.96875 -0.53125 C 3.207031 -0.375 3.472656 -0.222656 3.765625 -0.078125 C 4.066406 0.0546875 4.382812 0.164062 4.71875 0.25 C 5.050781 0.34375 5.398438 0.390625 5.765625 0.390625 C 6.421875 0.390625 7.03125 0.269531 7.59375 0.03125 C 8.164062 -0.207031 8.65625 -0.539062 9.0625 -0.96875 C 9.476562 -1.394531 9.804688 -1.898438 10.046875 -2.484375 C 10.285156 -3.066406 10.40625 -3.695312 10.40625 -4.375 C 10.40625 -5.300781 10.1875 -6.082031 9.75 -6.71875 C 9.320312 -7.363281 8.640625 -7.820312 7.703125 -8.09375 C 7.390625 -8.1875 7.09375 -8.269531 6.8125 -8.34375 C 6.539062 -8.414062 6.257812 -8.492188 5.96875 -8.578125 C 5.675781 -8.660156 5.367188 -8.75 5.046875 -8.84375 C 4.734375 -8.945312 4.382812 -9.078125 4 -9.234375 C 3.570312 -9.398438 3.25 -9.65625 3.03125 -10 C 2.8125 -10.34375 2.703125 -10.742188 2.703125 -11.203125 C 2.703125 -11.628906 2.789062 -12.003906 2.96875 -12.328125 C 3.15625 -12.648438 3.390625 -12.910156 3.671875 -13.109375 C 3.953125 -13.316406 4.273438 -13.472656 4.640625 -13.578125 C 5.003906 -13.679688 5.375 -13.734375 5.75 -13.734375 C 6.3125 -13.734375 6.804688 -13.632812 7.234375 -13.4375 C 7.660156 -13.25 8.015625 -12.992188 8.296875 -12.671875 C 8.585938 -12.359375 8.816406 -11.992188 8.984375 -11.578125 C 9.160156 -11.171875 9.28125 -10.75 9.34375 -10.3125 C 9.351562 -10.164062 9.410156 -10.09375 9.515625 -10.09375 C 9.617188 -10.09375 9.671875 -10.164062 9.671875 -10.3125 L 9.671875 -13.984375 C 9.671875 -14.117188 9.628906 -14.1875 9.546875 -14.1875 C 9.472656 -14.1875 9.394531 -14.132812 9.3125 -14.03125 Z M 9.3125 -14.03125 "/></g></g></g><g fill="#000000" fill-opacity="1"><g transform="translate(129.233621, 52.396424)"><g><path d="M 7.453125 -0.328125 L 7.453125 -13.546875 L 9.234375 -13.546875 C 9.867188 -13.546875 10.421875 -13.222656 10.890625 -12.578125 C 11.367188 -11.929688 11.6875 -11.050781 11.84375 -9.9375 L 12.265625 -9.9375 L 11.953125 -13.53125 C 11.941406 -13.757812 11.804688 -13.875 11.546875 -13.875 L 1.359375 -13.875 C 1.097656 -13.875 0.960938 -13.757812 0.953125 -13.53125 L 0.640625 -9.9375 L 1.078125 -9.9375 C 1.222656 -11.050781 1.535156 -11.929688 2.015625 -12.578125 C 2.492188 -13.222656 3.046875 -13.546875 3.671875 -13.546875 L 5.453125 -13.546875 L 5.453125 -0.328125 L 3.671875 -0.328125 L 3.671875 0 L 9.234375 0 L 9.234375 -0.328125 Z M 7.453125 -0.328125 "/></g></g></g><g fill="#000000" fill-opacity="1"><g transform="translate(142.022255, 52.396424)"><g><path d="M 11.46875 -3.828125 C 11.351562 -3.296875 11.234375 -2.816406 11.109375 -2.390625 C 10.984375 -1.960938 10.816406 -1.59375 10.609375 -1.28125 C 10.410156 -0.976562 10.148438 -0.742188 9.828125 -0.578125 C 9.515625 -0.410156 9.117188 -0.328125 8.640625 -0.328125 L 4.40625 -0.328125 L 4.40625 -13.546875 L 6.359375 -13.546875 L 6.359375 -13.875 L 0.625 -13.875 L 0.625 -13.546875 L 2.390625 -13.546875 L 2.390625 -0.328125 L 0.625 -0.328125 L 0.625 0 L 11.25 0 C 11.65625 0 11.859375 -0.21875 11.859375 -0.65625 L 11.859375 -3.765625 C 11.859375 -4.085938 11.800781 -4.25 11.6875 -4.25 C 11.59375 -4.25 11.519531 -4.109375 11.46875 -3.828125 Z M 11.46875 -3.828125 "/></g></g></g><g fill="#000000" fill-opacity="1"><g transform="translate(154.397689, 52.396424)"><g><path d="M 4.46875 -7.140625 L 6.09375 -7.140625 C 6.394531 -7.140625 6.632812 -7.09375 6.8125 -7 C 6.988281 -6.914062 7.128906 -6.789062 7.234375 -6.625 C 7.335938 -6.457031 7.414062 -6.257812 7.46875 -6.03125 C 7.53125 -5.800781 7.585938 -5.539062 7.640625 -5.25 C 7.679688 -5.050781 7.738281 -4.953125 7.8125 -4.953125 C 7.894531 -4.953125 7.9375 -5.039062 7.9375 -5.21875 L 7.9375 -9.421875 C 7.9375 -9.585938 7.894531 -9.671875 7.8125 -9.671875 C 7.738281 -9.671875 7.679688 -9.570312 7.640625 -9.375 C 7.585938 -9.082031 7.53125 -8.816406 7.46875 -8.578125 C 7.414062 -8.347656 7.335938 -8.148438 7.234375 -7.984375 C 7.128906 -7.828125 6.988281 -7.703125 6.8125 -7.609375 C 6.632812 -7.523438 6.394531 -7.484375 6.09375 -7.484375 L 4.46875 -7.484375 L 4.46875 -13.546875 L 7.59375 -13.546875 C 8.0625 -13.546875 8.453125 -13.429688 8.765625 -13.203125 C 9.085938 -12.984375 9.34375 -12.703125 9.53125 -12.359375 C 9.726562 -12.023438 9.867188 -11.664062 9.953125 -11.28125 C 10.046875 -10.90625 10.101562 -10.566406 10.125 -10.265625 C 10.125 -10.078125 10.175781 -9.984375 10.28125 -9.984375 C 10.382812 -9.984375 10.4375 -10.070312 10.4375 -10.25 L 10.4375 -13.390625 C 10.4375 -13.710938 10.265625 -13.875 9.921875 -13.875 L 0.6875 -13.875 L 0.6875 -13.546875 L 2.453125 -13.546875 L 2.453125 -0.328125 L 0.703125 -0.328125 L 0.703125 0 L 10.40625 0 C 10.8125 0 11.015625 -0.21875 11.015625 -0.65625 L 11.015625 -3.765625 C 11.015625 -4.085938 10.957031 -4.25 10.84375 -4.25 C 10.75 -4.25 10.675781 -4.109375 10.625 -3.828125 C 10.507812 -3.296875 10.390625 -2.816406 10.265625 -2.390625 C 10.140625 -1.960938 9.972656 -1.59375 9.765625 -1.28125 C 9.554688 -0.976562 9.296875 -0.742188 8.984375 -0.578125 C 8.671875 -0.410156 8.269531 -0.328125 7.78125 -0.328125 L 4.46875 -0.328125 Z M 4.46875 -7.140625 "/></g></g></g></svg>